<?xml version="1.0" encoding="utf-8"?>
<!-- Generator: Adobe Illustrator 24.3.0, SVG Export Plug-In . SVG Version: 6.00 Build 0)  -->
<svg version="1.1" id="Layer_1" xmlns="http://www.w3.org/2000/svg" xmlns:xlink="http://www.w3.org/1999/xlink" x="0px" y="0px"
	 viewBox="0 0 1016 201.8" style="enable-background:new 0 0 1016 201.8;" xml:space="preserve">
<style type="text/css">
	.st0{stroke:#000000;stroke-miterlimit:10;}
	.st1{fill:url(#SVGID_1_);}
	.st2{fill:#010101;}
	.st3{fill:#030303;}
	.st4{fill:url(#SVGID_2_);}
	.st5{fill:url(#SVGID_3_);}
	.st6{fill:url(#SVGID_4_);}
	.st7{fill:url(#SVGID_5_);}
	.st8{fill:url(#SVGID_6_);}
	.st9{fill:url(#SVGID_7_);}
	.st10{fill:url(#SVGID_8_);}
	.st11{fill:url(#SVGID_9_);}
</style>
<g>
	<path class="st0" d="M249.7,149.2c2.6-9.3,5.3-18.5,7.9-27.8c5.2-18.6,10.5-37.2,15.6-55.8c0.7-2.5,1.1-4.4,4.7-4.4
		c3.6,0,4.3,1.7,5.1,4.5c7.3,26.3,14.7,52.6,22.1,78.9c0.4,1.5,0.4,3.4,2.2,4.8c3.1-13.1,6.2-26,9.2-38.9
		c3.6-15.1,7.1-30.1,10.7-45.2c0.8-3.3,6.5-5.7,9.2-3.8c1.8,1.3,0.2,3.1-0.1,4.5c-5.4,22.2-10.8,44.3-16.3,66.5
		c-2.5,10-4.9,20.1-7.4,30.1c-0.6,2.4-0.4,5.2-4.5,5.1c-3.6-0.1-5-1-6-4.6c-7.3-26.3-14.9-52.5-22.4-78.8c-0.5-1.6-0.9-3.2-1.5-4.9
		c-2,1.5-1.9,3.7-2.4,5.6c-7.4,26.1-14.8,52.2-22,78.4c-0.9,3.4-2.3,4.3-5.7,4.4c-3.9,0.1-4.2-2-4.8-4.7
		c-7.8-32.2-15.8-64.4-23.5-96.6c-0.3-1.4-2.9-3.7,0.3-4.9c4.1-1.5,7.6,0.2,8.4,3.7c6.3,26.4,12.6,52.8,18.9,79.2
		c0.4,1.6,0.8,3.2,1.2,4.8C249.1,149.2,249.4,149.2,249.7,149.2z"/>
	<g>
		<linearGradient id="SVGID_1_" gradientUnits="userSpaceOnUse" x1="0" y1="100.9173" x2="178.2433" y2="100.9173">
			<stop  offset="0" style="stop-color:#4F46E5"/>
			<stop  offset="0.1911" style="stop-color:#4A4FE3"/>
			<stop  offset="0.5087" style="stop-color:#3B69DF"/>
			<stop  offset="0.9115" style="stop-color:#2492D9"/>
			<stop  offset="1" style="stop-color:#1E9CD7"/>
		</linearGradient>
		<path class="st1" d="M170.4,98.3c-0.9-0.5-1.6-1.2-2.5-1.6c-5.9-3.1-8.9-8.1-10.3-14.5c-1.6-7.4-1.7-14.8-2-22.3
			c-0.8-22.3-11.1-39-30.5-49.9C107.9,0.1,89.5-2,70.4,1.7C38.1,8,13.8,24.6,4.1,57.6c-9.3,31.4-3.2,59.2,21.4,82
			c3.9,3.6,7.7,7.3,11.7,10.9c4.7,4.3,7.2,9.4,6.6,15.9c-0.4,5-0.2,10-0.4,15c-0.3,11.5,5.2,18.1,16.6,19.9c3.1,0.5,6.3,0.6,9.5,0.4
			c13.8-0.7,20.6-6.8,21.3-20.6c0.7-14.5,0.5-29,0.4-43.5c0-2.8,0.7-4.5,3.4-5.8c6.3-3,12.4-6.4,18.7-9.4c2.9-1.4,4.3-3.4,4.2-6.6
			c-0.2-5.2,0-10.3-0.1-15.5c0-3.5,0.1-6.5,3.3-9.2c3.9-3.4,3.2-9.7-0.7-13.4c-3.7-3.5-9.8-3.6-13.6,0c-3.8,3.6-4.7,10.3-0.8,13.3
			c4.1,3.1,4,6.7,3.9,10.9c-0.1,3.5,0,7,0,10.5c0,1.5,0.2,3-1.5,3.8c-5.4,2.7-10.8,5.5-16.7,8.6c0-23.1,0-45.4,0-67.7
			c0-2,1.1-2.8,2.3-4c4.7-4.3,4.9-10.3,0.7-14.6c-4-4.1-10.3-4-14.2,0.1c-4,4.2-3.6,10.6,1.1,14.6c1.3,1.1,2.4,1.9,2.4,3.9
			c-0.1,17.5-0.1,34.9-0.1,52.8c-1.2-0.3-1.7-0.4-2.1-0.6c-5.1-2.7-12-4.2-14.9-8.5c-2.6-3.8-0.6-10.6-0.8-16.1
			c-0.1-2.7,0.3-4.8,2.9-6.8c4.3-3.2,4.5-9.2,1-13.3c-3.5-4.2-9.6-4.9-13.8-1.6c-4.2,3.4-5.7,9.7-1.9,13.2c4.4,3.9,3.8,8.3,3.9,12.9
			c0,4.2,0.2,8.3,0,12.5c-0.2,3.3,1.1,5.2,4.1,6.6c6.1,2.9,12.1,6.2,18.3,9.2c2.6,1.2,3.6,2.7,3.6,5.7c-0.2,17.5,0,35-0.1,52.5
			c-0.1,15-5.6,19.7-20.4,18.1c-0.7-0.1-1.3-0.2-2-0.4c-7.4-1.2-9.9-4.2-9.7-11.9c0.1-5.7,0.1-11.3,0.4-17
			c0.3-7.5-2.7-13.6-7.9-18.7c-4.3-4.2-8.5-8.5-12.9-12.5C3.4,108.7,2.3,75.2,17.4,46C32.8,16.1,73.1,1,107.7,11.3
			c21.6,6.5,36.2,19.9,39.5,43.3c1,6.9,0.7,14,1.4,20.9c1.4,13.1,4.9,24.9,19,30.1c3.6,1.3,3.7,4.1,0.8,6.6c-1.1,1-2.4,2-3.8,2.3
			c-7.3,1.9-9,7.2-8.8,13.7c0.1,6.3,0.6,12.7,0.4,19c-0.2,7.8-2.5,10.1-10.3,10.3c-7.2,0.1-14.3-0.1-21.5-0.4
			c-8.7-0.4-12.2,1.8-14.8,10.1c-2.8,8.7-3.1,17.7-3.1,26.7c0,2.7-0.1,5.8,3.6,5.9c3.8,0.1,4.4-2.8,4.3-5.9
			c-0.1-6.7-0.1-13.3,1.1-19.9c1.3-7.6,3.5-9.8,11.2-9.8c5.5,0,11,0.7,16.4,1.1c12.5,0.9,20.5-3.7,20.7-17.3c0.1-6.3,0-12.7,0-19
			c0-3.7,0.9-6.1,5-7.9C178.5,116.8,183.3,105.2,170.4,98.3z M108.7,85.3c-0.1-3,1.4-4.6,4.2-5c3.2,0.1,4.9,1.7,5,4.6
			c0.1,3-1.7,4.7-4.6,4.7C110.5,89.7,108.8,88.1,108.7,85.3z M57.2,71.1c0-2.8,1.5-4.6,4.5-4.7c3.1-0.1,4.6,1.9,4.7,4.6
			c0.1,2.8-1.7,4.4-4.5,4.8C59,75.6,57.3,73.9,57.2,71.1z M82.7,45.4c0.1-3,2-4.3,4.7-4.8c2.8,0.5,4.5,2.1,4.5,5c0,3-2,4.7-4.7,4.6
			C84.4,50.2,82.5,48.4,82.7,45.4z"/>
	</g>
	<g>
		<path class="st0" d="M490.8,112.7c-9.5-23.1-41-26.1-53.2-7.2c-0.2,0.3-0.7,0.5-1.7,1c0-1.2,0-2,0-2.8c0-14-0.1-28,0.1-42
			c0-3.3-0.9-4.1-4.2-4.2c-3.9-0.1-5.4,1-4.9,5c0.3,2.6,0.1,5.3,0.1,8c0,30.8,0,61.6,0.1,92.4c0,1.5-1.3,3.8,1.6,4.5
			c4.7,1.2,6.6-0.2,6.7-4.9c0.1-2.4,0.2-4.8,0.4-8.1c1.1,1.4,1.6,1.9,2,2.6c12.4,17.7,39.9,15.1,50.6-3.1
			C496.2,140.8,496.6,126.7,490.8,112.7z M469.5,159.2c-12.5,4.8-26.1-1.3-31.1-14.1c-3.4-8.7-3.5-17.6-0.6-26.4
			c3.3-10.3,12.1-16.8,22.3-17c10.6-0.2,19.4,5.9,23.3,16.3c1.6,4.3,2.2,8.7,2.2,13.2C485.7,144.6,479.5,155.3,469.5,159.2z"/>
	</g>
	<g>
		<g>
			<path d="M589.4,149.3c6.4-27,12.8-53.9,19.1-80.8c1.9-8.1,1.9-8.1,10.9-6.6C613,88,606.6,114,600.2,140c-2,8.1-4.1,16.2-5.9,24.3
				c-0.6,2.6-1.8,3.5-4.4,3.3c-2.5-0.2-4.5,0.3-5.5-3.3c-7.4-26.8-15.1-53.5-22.8-80.3c-0.4-1.5-0.5-3.2-2.2-4.9
				c-2.8,9.8-5.4,19.2-8.1,28.6c-5.2,18.6-10.6,37.1-15.6,55.8c-1,3.7-2.8,3.9-5.9,4.1c-3.7,0.3-3.9-1.9-4.5-4.4
				c-7.9-32.4-15.8-64.7-23.7-97.1c-0.4-1.4-0.6-2.9-1-4.8c1.9,0,3.6,0.2,5.2,0c3.2-0.5,4.2,1.1,4.9,4c6.2,26.4,12.5,52.8,18.8,79.2
				c0.4,1.6,0.8,3.2,1.3,5c1.9-2.3,2.1-4.8,2.7-7.2c7.2-25.6,14.5-51.3,21.6-77c0.7-2.6,1.4-4.2,4.8-4.2c3.5,0,4.1,1.6,4.8,4.3
				c7.4,26.5,14.8,52.9,22.3,79.4C587.6,146.4,587.5,148.2,589.4,149.3z"/>
			<path d="M989.4,169c-11.9,0-21.1-3.3-28.5-11.2c-1.4-1.5-3.4-3.1-0.3-5c2.1-1.2,3.1-4.6,6.6-0.8c8.4,9.1,19.2,10.5,30.7,7.3
				c4.5-1.3,7.9-4.2,8.8-9.2c1.1-6.4-0.8-10.4-7-12.4c-8.3-2.7-17-4.4-25.3-7.2c-10.2-3.4-14.5-11.9-11.8-22.1
				c1-3.9,3.3-6.9,6.3-9.3c11.2-9.1,32.4-7.4,42.1,3.3c2,2.2,2.6,3.7-0.2,6c-2.4,1.9-3.4,2.5-5.8-0.2c-6.1-6.8-18.4-8.9-26.8-5
				c-4.4,2-7.3,5.3-7.3,10.4c0,5.1,3.2,7.8,7.7,9.2c8.1,2.4,16.3,4.4,24.3,7.1c7.6,2.6,12.8,7.6,13.1,16.4
				c0.3,8.9-3.7,15.3-11.4,19.5c-3.1,1.7-6.4,2.7-9.9,3C992.5,168.8,990.3,168.9,989.4,169z"/>
			<path d="M677.3,159.5c14,0,26.9,0.2,39.8-0.1c4.3-0.1,4.9,1.5,4.7,5.1c-0.1,2.3-0.5,3.2-3,3.1c-16.2-0.1-32.3,0-48.5-0.1
				c-3.4,0-4.9-5.1-2.6-9c0.9-1.6,2.2-2.9,3.3-4.4c12.1-15.7,24.2-31.4,36.2-47.1c0.8-1.1,2.3-2,2.1-4.2c-11.8,0-23.5-0.1-35.3,0.1
				c-3.4,0.1-4.6-0.7-4.5-4.3c0.1-3.2,1.1-3.8,4.1-3.8c13.8,0.1,27.7,0.1,41.5,0.1c5.7,0,8,4,5.1,9.2c-0.6,1-1.4,1.9-2.1,2.8
				C704.7,124,691.4,141.2,677.3,159.5z"/>
			<path class="st2" d="M829.8,106.3c6.9-10.2,16.3-14.2,28.4-13c5.7,0.6,2.9,4.6,3.2,7.1c0.4,3.5-2.3,1.8-3.7,1.6
				c-14.8-2.4-29.3,8-28.4,24.6c0.7,12.3,0,24.6,0.2,36.9c0.1,4-1.7,4.1-4.7,4.1c-3.1,0-4.6-0.3-4.6-4.1c0.2-21.5,0.1-42.9,0.1-64.4
				c0-2.8,0.1-4.7,3.9-4.4c2.9,0.2,5.1,0,4.8,4.1C828.8,101.1,828.5,103.7,829.8,106.3z"/>
			<path class="st3" d="M638.1,131c0-10.8,0.2-21.6-0.1-32.4c-0.1-3.7,1.5-4,4.4-3.9c2.7,0,4.6,0,4.5,3.8c-0.2,21.8-0.2,43.6,0,65.3
				c0,3.8-1.7,3.8-4.4,3.8c-2.6-0.1-4.7,0.4-4.6-3.7C638.3,153,638.1,142,638.1,131z"/>
			<path class="st3" d="M642.3,78.7c-3.9-0.1-6.9-3.2-6.7-7.1c0.3-4.2,2.8-6.3,6.8-6.4c3.9-0.2,6.8,3,6.6,7.1
				C648.9,76.1,646.1,78.8,642.3,78.7z"/>
			<g>
				<path d="M940.9,61.5c0-3.9-1.8-3.8-4.6-3.7c-2.6,0-4.7-0.2-4.6,3.7c0.3,13.3,0.1,26.6,0.1,40c0,1.6,0.6,3.2-0.8,5
					c-0.5-0.6-0.9-1-1.3-1.5c-11.8-17.3-39.9-14.9-50.5,3.7c-8.2,14.4-8.3,29.3-0.6,43.9c10.6,20.1,39.4,22.4,51.7,4.4
					c0.4-0.6,0.7-1.5,2.2-1.5c0,2.8,0.3,5.6-0.1,8.3c-0.5,3.8,1.6,3.8,4.4,3.9c2.9,0.1,4-0.5,4-3.8
					C940.8,129.7,940.7,95.6,940.9,61.5z M927.8,148.4c-4.9,9.1-13,13.1-23.3,12c-9.7-1-16.1-6.7-19.7-15.5
					c-1.9-4.5-2.6-9.3-2.4-14.2c0.2-11.7,3.7-21.8,15.1-27.1c11.7-5.5,25.1-0.7,30.9,11.1C933.8,125.9,933.7,137.4,927.8,148.4z"/>
			</g>
			<g>
				<path d="M803.1,163.5c0-3.4-2.4-2.1-3.9-1.9c-3.9,0.5-5-1.3-4.9-4.9c0.2-6,0.1-12,0-18c-0.2-9.5,0.7-19-0.6-28.4
					c-1.1-8.5-5.8-13.9-14.3-15.9c-13.6-3.1-26.4-0.6-38.6,5.6c-1.4,0.7-4.6,1-2.3,4c1.6,2,1.7,5.9,6.3,3.3c8.6-4.8,18-6.5,27.9-5.7
					c7.7,0.7,11.9,4,12.5,11c0.5,5.6,0.1,11.2,0.1,16.9c-0.7-0.1-1.2-0.1-1.6-0.3c-14.7-7.4-28.4-4.8-41.1,4.6
					c-7.6,5.6-9.8,13.9-7.2,22.2c2.3,7.2,9.5,12.1,18.6,12.6c11.4,0.6,22.1-1.6,31.2-9.2c2.9,9.4,6.1,11,14.7,8.7
					C802.9,167.3,803.1,165.8,803.1,163.5z M782.2,152.4c-4.7,5-13.6,8.1-23.4,8.1c-2.5,0-4.9-0.1-7.4-0.9
					c-8.5-2.8-10.9-11.2-5-18.1c7-8.2,25.2-11.4,34.6-6.1C787.2,138.8,787.7,146.6,782.2,152.4z"/>
			</g>
		</g>
		<g>
			
				<linearGradient id="SVGID_2_" gradientUnits="userSpaceOnUse" x1="481.418" y1="200.7987" x2="996.6716" y2="200.7987" gradientTransform="matrix(1 0 0 1 19.3351 -87.3837)">
				<stop  offset="0" style="stop-color:#4F46E5"/>
				<stop  offset="0.1911" style="stop-color:#4A4FE3"/>
				<stop  offset="0.5087" style="stop-color:#3B69DF"/>
				<stop  offset="0.9115" style="stop-color:#2492D9"/>
				<stop  offset="1" style="stop-color:#1E9CD7"/>
			</linearGradient>
			<path class="st4" d="M589.4,149.3c6.4-27,12.8-53.9,19.1-80.8c1.9-8.1,1.9-8.1,10.9-6.6C613,88,606.6,114,600.2,140
				c-2,8.1-4.1,16.2-5.9,24.3c-0.6,2.6-1.8,3.5-4.4,3.3c-2.5-0.2-4.5,0.3-5.5-3.3c-7.4-26.8-15.1-53.5-22.8-80.3
				c-0.4-1.5-0.5-3.2-2.2-4.9c-2.8,9.8-5.4,19.2-8.1,28.6c-5.2,18.6-10.6,37.1-15.6,55.8c-1,3.7-2.8,3.9-5.9,4.1
				c-3.7,0.3-3.9-1.9-4.5-4.4c-7.9-32.4-15.8-64.7-23.7-97.1c-0.4-1.4-0.6-2.9-1-4.8c1.9,0,3.6,0.2,5.2,0c3.2-0.5,4.2,1.1,4.9,4
				c6.2,26.4,12.5,52.8,18.8,79.2c0.4,1.6,0.8,3.2,1.3,5c1.9-2.3,2.1-4.8,2.7-7.2c7.2-25.6,14.5-51.3,21.6-77
				c0.7-2.6,1.4-4.2,4.8-4.2c3.5,0,4.1,1.6,4.8,4.3c7.4,26.5,14.8,52.9,22.3,79.4C587.6,146.4,587.5,148.2,589.4,149.3z"/>
			
				<linearGradient id="SVGID_3_" gradientUnits="userSpaceOnUse" x1="481.418" y1="200.7987" x2="996.6716" y2="200.7987" gradientTransform="matrix(1 0 0 1 19.3351 -87.3837)">
				<stop  offset="0" style="stop-color:#4F46E5"/>
				<stop  offset="0.1911" style="stop-color:#4A4FE3"/>
				<stop  offset="0.5087" style="stop-color:#3B69DF"/>
				<stop  offset="0.9115" style="stop-color:#2492D9"/>
				<stop  offset="1" style="stop-color:#1E9CD7"/>
			</linearGradient>
			<path class="st5" d="M989.4,169c-11.9,0-21.1-3.3-28.5-11.2c-1.4-1.5-3.4-3.1-0.3-5c2.1-1.2,3.1-4.6,6.6-0.8
				c8.4,9.1,19.2,10.5,30.7,7.3c4.5-1.3,7.9-4.2,8.8-9.2c1.1-6.4-0.8-10.4-7-12.4c-8.3-2.7-17-4.4-25.3-7.2
				c-10.2-3.4-14.5-11.9-11.8-22.1c1-3.9,3.3-6.9,6.3-9.3c11.2-9.1,32.4-7.4,42.1,3.3c2,2.2,2.6,3.7-0.2,6c-2.4,1.9-3.4,2.5-5.8-0.2
				c-6.1-6.8-18.4-8.9-26.8-5c-4.4,2-7.3,5.3-7.3,10.4c0,5.1,3.2,7.8,7.7,9.2c8.1,2.4,16.3,4.4,24.3,7.1c7.6,2.6,12.8,7.6,13.1,16.4
				c0.3,8.9-3.7,15.3-11.4,19.5c-3.1,1.7-6.4,2.7-9.9,3C992.5,168.8,990.3,168.9,989.4,169z"/>
			
				<linearGradient id="SVGID_4_" gradientUnits="userSpaceOnUse" x1="481.418" y1="200.7987" x2="996.6716" y2="200.7987" gradientTransform="matrix(1 0 0 1 19.3351 -87.3837)">
				<stop  offset="0" style="stop-color:#4F46E5"/>
				<stop  offset="0.1911" style="stop-color:#4A4FE3"/>
				<stop  offset="0.5087" style="stop-color:#3B69DF"/>
				<stop  offset="0.9115" style="stop-color:#2492D9"/>
				<stop  offset="1" style="stop-color:#1E9CD7"/>
			</linearGradient>
			<path class="st6" d="M677.3,159.5c14,0,26.9,0.2,39.8-0.1c4.3-0.1,4.9,1.5,4.7,5.1c-0.1,2.3-0.5,3.2-3,3.1
				c-16.2-0.1-32.3,0-48.5-0.1c-3.4,0-4.9-5.1-2.6-9c0.9-1.6,2.2-2.9,3.3-4.4c12.1-15.7,24.2-31.4,36.2-47.1c0.8-1.1,2.3-2,2.1-4.2
				c-11.8,0-23.5-0.1-35.3,0.1c-3.4,0.1-4.6-0.7-4.5-4.3c0.1-3.2,1.1-3.8,4.1-3.8c13.8,0.1,27.7,0.1,41.5,0.1c5.7,0,8,4,5.1,9.2
				c-0.6,1-1.4,1.9-2.1,2.8C704.7,124,691.4,141.2,677.3,159.5z"/>
			
				<linearGradient id="SVGID_5_" gradientUnits="userSpaceOnUse" x1="481.418" y1="200.7987" x2="996.6716" y2="200.7987" gradientTransform="matrix(1 0 0 1 19.3351 -87.3837)">
				<stop  offset="0" style="stop-color:#4F46E5"/>
				<stop  offset="0.1911" style="stop-color:#4A4FE3"/>
				<stop  offset="0.5087" style="stop-color:#3B69DF"/>
				<stop  offset="0.9115" style="stop-color:#2492D9"/>
				<stop  offset="1" style="stop-color:#1E9CD7"/>
			</linearGradient>
			<path class="st7" d="M829.8,106.3c6.9-10.2,16.3-14.2,28.4-13c5.7,0.6,2.9,4.6,3.2,7.1c0.4,3.5-2.3,1.8-3.7,1.6
				c-14.8-2.4-29.3,8-28.4,24.6c0.7,12.3,0,24.6,0.2,36.9c0.1,4-1.7,4.1-4.7,4.1c-3.1,0-4.6-0.3-4.6-4.1c0.2-21.5,0.1-42.9,0.1-64.4
				c0-2.8,0.1-4.7,3.9-4.4c2.9,0.2,5.1,0,4.8,4.1C828.8,101.1,828.5,103.7,829.8,106.3z"/>
			
				<linearGradient id="SVGID_6_" gradientUnits="userSpaceOnUse" x1="481.418" y1="200.7987" x2="996.6716" y2="200.7987" gradientTransform="matrix(1 0 0 1 19.3351 -87.3837)">
				<stop  offset="0" style="stop-color:#4F46E5"/>
				<stop  offset="0.1911" style="stop-color:#4A4FE3"/>
				<stop  offset="0.5087" style="stop-color:#3B69DF"/>
				<stop  offset="0.9115" style="stop-color:#2492D9"/>
				<stop  offset="1" style="stop-color:#1E9CD7"/>
			</linearGradient>
			<path class="st8" d="M638.1,131c0-10.8,0.2-21.6-0.1-32.4c-0.1-3.7,1.5-4,4.4-3.9c2.7,0,4.6,0,4.5,3.8c-0.2,21.8-0.2,43.6,0,65.3
				c0,3.8-1.7,3.8-4.4,3.8c-2.6-0.1-4.7,0.4-4.6-3.7C638.3,153,638.1,142,638.1,131z"/>
			
				<linearGradient id="SVGID_7_" gradientUnits="userSpaceOnUse" x1="481.418" y1="200.7987" x2="996.6716" y2="200.7987" gradientTransform="matrix(1 0 0 1 19.3351 -87.3837)">
				<stop  offset="0" style="stop-color:#4F46E5"/>
				<stop  offset="0.1911" style="stop-color:#4A4FE3"/>
				<stop  offset="0.5087" style="stop-color:#3B69DF"/>
				<stop  offset="0.9115" style="stop-color:#2492D9"/>
				<stop  offset="1" style="stop-color:#1E9CD7"/>
			</linearGradient>
			<path class="st9" d="M642.3,78.7c-3.9-0.1-6.9-3.2-6.7-7.1c0.3-4.2,2.8-6.3,6.8-6.4c3.9-0.2,6.8,3,6.6,7.1
				C648.9,76.1,646.1,78.8,642.3,78.7z"/>
			<g>
				
					<linearGradient id="SVGID_8_" gradientUnits="userSpaceOnUse" x1="481.418" y1="200.7987" x2="996.6716" y2="200.7987" gradientTransform="matrix(1 0 0 1 19.3351 -87.3837)">
					<stop  offset="0" style="stop-color:#4F46E5"/>
					<stop  offset="0.1911" style="stop-color:#4A4FE3"/>
					<stop  offset="0.5087" style="stop-color:#3B69DF"/>
					<stop  offset="0.9115" style="stop-color:#2492D9"/>
					<stop  offset="1" style="stop-color:#1E9CD7"/>
				</linearGradient>
				<path class="st10" d="M940.9,61.5c0-3.9-1.8-3.8-4.6-3.7c-2.6,0-4.7-0.2-4.6,3.7c0.3,13.3,0.1,26.6,0.1,40c0,1.6,0.6,3.2-0.8,5
					c-0.5-0.6-0.9-1-1.3-1.5c-11.8-17.3-39.9-14.9-50.5,3.7c-8.2,14.4-8.3,29.3-0.6,43.9c10.6,20.1,39.4,22.4,51.7,4.4
					c0.4-0.6,0.7-1.5,2.2-1.5c0,2.8,0.3,5.6-0.1,8.3c-0.5,3.8,1.6,3.8,4.4,3.9c2.9,0.1,4-0.5,4-3.8
					C940.8,129.7,940.7,95.6,940.9,61.5z M927.8,148.4c-4.9,9.1-13,13.1-23.3,12c-9.7-1-16.1-6.7-19.7-15.5
					c-1.9-4.5-2.6-9.3-2.4-14.2c0.2-11.7,3.7-21.8,15.1-27.1c11.7-5.5,25.1-0.7,30.9,11.1C933.8,125.9,933.7,137.4,927.8,148.4z"/>
			</g>
			<g>
				
					<linearGradient id="SVGID_9_" gradientUnits="userSpaceOnUse" x1="481.418" y1="200.7987" x2="996.6716" y2="200.7987" gradientTransform="matrix(1 0 0 1 19.3351 -87.3837)">
					<stop  offset="0" style="stop-color:#4F46E5"/>
					<stop  offset="0.1911" style="stop-color:#4A4FE3"/>
					<stop  offset="0.5087" style="stop-color:#3B69DF"/>
					<stop  offset="0.9115" style="stop-color:#2492D9"/>
					<stop  offset="1" style="stop-color:#1E9CD7"/>
				</linearGradient>
				<path class="st11" d="M803.1,163.5c0-3.4-2.4-2.1-3.9-1.9c-3.9,0.5-5-1.3-4.9-4.9c0.2-6,0.1-12,0-18c-0.2-9.5,0.7-19-0.6-28.4
					c-1.1-8.5-5.8-13.9-14.3-15.9c-13.6-3.1-26.4-0.6-38.6,5.6c-1.4,0.7-4.6,1-2.3,4c1.6,2,1.7,5.9,6.3,3.3c8.6-4.8,18-6.5,27.9-5.7
					c7.7,0.7,11.9,4,12.5,11c0.5,5.6,0.1,11.2,0.1,16.9c-0.7-0.1-1.2-0.1-1.6-0.3c-14.7-7.4-28.4-4.8-41.1,4.6
					c-7.6,5.6-9.8,13.9-7.2,22.2c2.3,7.2,9.5,12.1,18.6,12.6c11.4,0.6,22.1-1.6,31.2-9.2c2.9,9.4,6.1,11,14.7,8.7
					C802.9,167.3,803.1,165.8,803.1,163.5z M782.2,152.4c-4.7,5-13.6,8.1-23.4,8.1c-2.5,0-4.9-0.1-7.4-0.9
					c-8.5-2.8-10.9-11.2-5-18.1c7-8.2,25.2-11.4,34.6-6.1C787.2,138.8,787.7,146.6,782.2,152.4z"/>
			</g>
		</g>
	</g>
	<g>
		<path class="st0" d="M404.6,145.8c-2.3-1.5-3.7-1.9-5.2,1.3c-2.8,5.9-7.2,10.3-13.6,12.5c-17.2,5.8-32.6-5.8-33.5-25.4
			c-0.1-2.9,0.3-4.1,3.6-4c8,0.2,16,0.1,24,0.1c8,0,16,0,24,0c2.2,0,3.6-0.1,3.7-3.1c0.7-14.2-8.9-29-21.5-32.8
			c-14.8-4.4-30.2,1.7-37.6,15.3c-6.6,12.3-6.9,25.3-2.1,38.2c4.8,12.9,14.4,20,28.3,20.9c14.4,0.9,25-5,32.1-17.6
			C408.9,147.8,406.7,147.2,404.6,145.8z M376.3,100.7c10-0.3,19.1,7.1,21.9,17.8c0.4,1.6,2,4-1.8,4c-14.3-0.1-28.6,0-43.1,0
			C355.6,109,364.3,101.1,376.3,100.7z"/>
	</g>
</g>
</svg>
